<svg width="30" height="30" viewBox="0 0 30 30" fill="none" xmlns="http://www.w3.org/2000/svg">
<circle cx="15" cy="15" r="14.5" fill="#F3FBFF" stroke="#3785C6"/>
<path d="M13.9329 12.229L16.2661 14.7688L13.9329 17.3067C13.8373 17.4034 13.7837 17.534 13.7837 17.67C13.7837 17.8061 13.8373 17.9366 13.9329 18.0334C13.9799 18.0811 14.0359 18.119 14.0977 18.1449C14.1595 18.1708 14.2258 18.1841 14.2927 18.1841C14.3597 18.1841 14.426 18.1708 14.4878 18.1449C14.5496 18.119 14.6056 18.0811 14.6525 18.0334L17.4975 15.1307C17.5931 15.0339 17.6467 14.9034 17.6467 14.7673C17.6467 14.6313 17.5931 14.5007 17.4975 14.404L14.6525 11.5013C14.6054 11.4538 14.5494 11.4161 14.4876 11.3904C14.4259 11.3646 14.3596 11.3514 14.2927 11.3514C14.2258 11.3514 14.1596 11.3646 14.0979 11.3904C14.0361 11.4161 13.9801 11.4538 13.9329 11.5013C13.8375 11.5983 13.784 11.729 13.784 11.8651C13.784 12.0013 13.8375 12.1319 13.9329 12.229Z" fill="#3785C6"/>
<path d="M13.9329 12.229L16.2661 14.7688L13.9329 17.3067C13.8373 17.4034 13.7837 17.534 13.7837 17.67C13.7837 17.8061 13.8373 17.9366 13.9329 18.0334C13.9799 18.0811 14.0359 18.119 14.0977 18.1449C14.1595 18.1708 14.2258 18.1841 14.2927 18.1841C14.3597 18.1841 14.426 18.1708 14.4878 18.1449C14.5496 18.119 14.6056 18.0811 14.6525 18.0334L17.4975 15.1307C17.5931 15.0339 17.6467 14.9034 17.6467 14.7673C17.6467 14.6313 17.5931 14.5007 17.4975 14.404L14.6525 11.5013C14.6054 11.4538 14.5494 11.4161 14.4876 11.3904C14.4259 11.3646 14.3596 11.3514 14.2927 11.3514C14.2258 11.3514 14.1596 11.3646 14.0979 11.3904C14.0361 11.4161 13.9801 11.4538 13.9329 11.5013C13.8375 11.5983 13.784 11.729 13.784 11.8651C13.784 12.0013 13.8375 12.1319 13.9329 12.229Z" stroke="#3785C6"/>
</svg>
