<svg width="195" height="195" viewBox="0 0 195 195" fill="none" xmlns="http://www.w3.org/2000/svg">
<path d="M195 97.45C195 43.6776 151.3 0 97.5 0C43.7 0 0 43.6776 0 97.45C0 146.125 35.6999 186.404 82.2999 193.701V125.536H57.3999V97.3501H82.2999V75.8611C82.2999 51.4736 96.8 37.8806 119 37.8806C129.7 37.8806 140.7 39.9795 140.7 39.9795V63.7673H128.5C116.4 63.7673 112.5 71.3634 112.5 79.0595V97.3501H139.6L135.3 125.536H112.6V193.701C159.3 186.404 195 146.125 195 97.45Z" fill="#1877F2"/>
<path d="M135.4 125.636L139.7 97.45H112.6V79.1594C112.6 71.4634 116.5 63.8673 128.6 63.8673H140.8V40.0795C140.8 40.0795 129.7 37.9805 119.1 37.9805C96.8 37.9805 82.3999 51.5736 82.3999 75.9611V97.45H57.5V125.636H82.3999V193.801C87.2999 194.6 92.4 195 97.6 195C102.8 195 107.8 194.6 112.8 193.801V125.636H135.4Z" fill="white"/>
</svg>
