<svg width="361" height="142" viewBox="0 0 361 142" fill="none" xmlns="http://www.w3.org/2000/svg">
<path fill-rule="evenodd" clip-rule="evenodd" d="M70.9759 142C110.175 142 141.952 110.212 141.952 71C141.952 31.7878 110.175 0 70.9759 0C31.777 0 0 31.7878 0 71C0 110.212 31.777 142 70.9759 142ZM70.976 137.419C107.646 137.419 137.373 107.682 137.373 71C137.373 34.3176 107.646 4.5806 70.976 4.5806C34.3061 4.5806 4.5792 34.3176 4.5792 71C4.5792 107.682 34.3061 137.419 70.976 137.419Z" fill="#232538"/>
<path fill-rule="evenodd" clip-rule="evenodd" d="M60.115 25.3275H82.0434L117.048 108.784H92.4409L71.1839 55.3631L50.2284 108.784H25.3193L60.115 25.3275Z" fill="#232538"/>
<mask id="mask0" style="mask-type:alpha" maskUnits="userSpaceOnUse" x="25" y="25" width="93" height="84">
<path fill-rule="evenodd" clip-rule="evenodd" d="M60.115 25.3275H82.0434L117.048 108.784H92.4409L71.1839 55.3631L50.2284 108.784H25.3193L60.115 25.3275Z" fill="white"/>
</mask>
<g mask="url(#mask0)">
</g>
<path fill-rule="evenodd" clip-rule="evenodd" d="M184.302 38.3275H196.462L222.521 98.8386H209.578L190.651 52.9509L171.689 98.8386H158.731L184.302 38.3275Z" fill="#232538"/>
<path fill-rule="evenodd" clip-rule="evenodd" d="M246.613 38.3275H234.619V87.1686V98.8383V98.8385H275.312V87.1686H246.613V38.3275Z" fill="#232538"/>
<path fill-rule="evenodd" clip-rule="evenodd" d="M287.41 38.3275H299.223V50.5297L287.41 56.6309V38.3275Z" fill="#232538"/>
<path fill-rule="evenodd" clip-rule="evenodd" d="M287.41 60.6982L299.223 54.5971V98.7392H287.41V60.6982Z" fill="#232538"/>
<path fill-rule="evenodd" clip-rule="evenodd" d="M321.974 84.438C326.747 88.189 332.427 90.0907 339.011 90.1431C346.803 90.0382 350.754 87.3758 350.863 82.1559C350.918 77.8803 348.312 75.3097 343.044 74.4441C340.63 74.1294 337.982 73.7752 335.102 73.3818C329.944 72.5686 326.02 70.7456 323.332 67.9127C320.561 65.0011 319.175 61.46 319.175 57.2893C319.175 52.2792 320.917 48.2398 324.402 45.1708C327.776 42.128 332.564 40.5804 338.764 40.528C346.227 40.6853 352.715 42.6657 358.23 46.4692L353.168 53.6301C348.668 50.7972 343.716 49.3283 338.312 49.2234C335.513 49.2234 333.181 49.8923 331.315 51.23C329.368 52.6203 328.366 54.6925 328.311 57.4467C328.311 59.0992 328.983 60.5944 330.328 61.9321C331.672 63.2961 333.826 64.2404 336.789 64.765C338.435 65.0273 340.685 65.329 343.538 65.67C349.162 66.4044 353.319 68.3324 356.008 71.4538C358.669 74.5228 359.999 78.0902 359.999 82.1559C359.698 93.1204 352.674 98.6812 338.929 98.8386C330.04 98.8386 322.399 96.2156 316.006 90.9694L321.974 84.438Z" fill="#232538" stroke="#232538" stroke-width="0.4"/>
</svg>
