<svg width="164" height="64" viewBox="0 0 164 64" fill="none" xmlns="http://www.w3.org/2000/svg">
<path fill-rule="evenodd" clip-rule="evenodd" d="M32.1363 64C49.8847 64 64.2727 49.6731 64.2727 32C64.2727 14.3269 49.8847 0 32.1363 0C14.3879 0 0 14.3269 0 32C0 49.6731 14.3879 64 32.1363 64ZM32.1364 61.9355C48.7398 61.9355 62.1994 48.5329 62.1994 32C62.1994 15.4671 48.7398 2.06448 32.1364 2.06448C15.5331 2.06448 2.07342 15.4671 2.07342 32C2.07342 48.5329 15.5331 61.9355 32.1364 61.9355Z" fill="white"/>
<path fill-rule="evenodd" clip-rule="evenodd" d="M27.2188 11.4153H37.1475L52.997 49.0293H41.8553L32.2306 24.9524L22.7424 49.0293H11.4641L27.2188 11.4153Z" fill="white"/>
<mask id="mask0_1073:5107" style="mask-type:alpha" maskUnits="userSpaceOnUse" x="11" y="11" width="42" height="39">
<path fill-rule="evenodd" clip-rule="evenodd" d="M27.2188 11.4153H37.1475L52.997 49.0293H41.8553L32.2306 24.9524L22.7424 49.0293H11.4641L27.2188 11.4153Z" fill="white"/>
</mask>
<g mask="url(#mask0_1073:5107)">
</g>
<path fill-rule="evenodd" clip-rule="evenodd" d="M83.448 17.2744H88.9539L100.753 44.547H94.8926L86.323 23.8652L77.7372 44.547H71.8701L83.448 17.2744Z" fill="white"/>
<path fill-rule="evenodd" clip-rule="evenodd" d="M111.661 17.2744H106.23V39.2873V44.5469V44.547H124.656V39.2873H111.661V17.2744Z" fill="white"/>
<path fill-rule="evenodd" clip-rule="evenodd" d="M130.133 17.2744H135.482V22.774L130.133 25.5238V17.2744Z" fill="white"/>
<path fill-rule="evenodd" clip-rule="evenodd" d="M130.133 27.357L135.482 24.6072V44.5022H130.133V27.357Z" fill="white"/>
<path fill-rule="evenodd" clip-rule="evenodd" d="M145.783 38.0565C147.944 39.7471 150.516 40.6042 153.497 40.6279C157.025 40.5806 158.814 39.3806 158.863 37.028C158.888 35.101 157.708 33.9424 155.323 33.5523C154.23 33.4104 153.031 33.2508 151.727 33.0735C149.391 32.707 147.615 31.8853 146.398 30.6085C145.143 29.2963 144.516 27.7003 144.516 25.8205C144.516 23.5625 145.304 21.7419 146.882 20.3587C148.41 18.9873 150.578 18.2898 153.385 18.2661C156.764 18.337 159.702 19.2296 162.199 20.9439L159.907 24.1713C157.87 22.8945 155.627 22.2325 153.18 22.1852C151.913 22.1852 150.857 22.4867 150.012 23.0896C149.13 23.7162 148.677 24.6501 148.652 25.8915C148.652 26.6363 148.957 27.3101 149.565 27.9131C150.174 28.5278 151.149 28.9534 152.491 29.1899C153.236 29.3081 154.255 29.444 155.547 29.5977C158.093 29.9288 159.975 30.7977 161.192 32.2045C162.397 33.5877 163 35.1956 163 37.028C162.863 41.9697 159.683 44.476 153.46 44.547C149.435 44.547 145.975 43.3647 143.081 41.0003L145.783 38.0565Z" fill="white" stroke="white" stroke-width="0.4"/>
</svg>
